<mxfile>
  <diagram>
    <mxGraphModel>
      <root>
        <mxCell id="0"/>
        <mxCell id="1" parent="0"/>
        <mxCell id="2" value="Auto" style="rounded=1;whiteSpace=wrap;html=1;" vertex="1" parent="1">
          <mxGeometry x="120" y="80" width="160" height="120" as="geometry"/>
        </mxCell>
        <mxCell id="3" value="-radio: Radio" style="text;html=1;spacingLeft=4;align=left;verticalAlign=middle;overflow=hidden;rotatable=0;" vertex="1" parent="2">
          <mxGeometry y="25" width="160" height="20" as="geometry"/>
        </mxCell>
        <mxCell id="4" value="+Auto()" style="text;html=1;spacingLeft=4;align=left;verticalAlign=middle;overflow=hidden;rotatable=0;" vertex="1" parent="2">
          <mxGeometry y="45" width="160" height="20" as="geometry"/>
        </mxCell>
        <mxCell id="5" value="+setRadio(radio: Radio): void" style="text;html=1;spacingLeft=4;align=left;verticalAlign=middle;overflow=hidden;rotatable=0;" vertex="1" parent="2">
          <mxGeometry y="65" width="160" height="20" as="geometry"/>
        </mxCell>
        <mxCell id="6" value="+getRadio(): Radio" style="text;html=1;spacingLeft=4;align=left;verticalAlign=middle;overflow=hidden;rotatable=0;" vertex="1" parent="2">
          <mxGeometry y="85" width="160" height="20" as="geometry"/>
        </mxCell>
        <mxCell id="7" value="Radio" style="rounded=1;whiteSpace=wrap;html=1;" vertex="1" parent="1">
          <mxGeometry x="320" y="80" width="160" height="60" as="geometry"/>
        </mxCell>
        <mxCell id="8" value="" style="endArrow=block;endFill=1;edgeStyle=orthogonalEdgeStyle;rounded=0;orthogonalLoop=1;jettySize=auto;html=1;" edge="1" parent="1" source="2" target="7">
          <mxGeometry width="50" height="50" relative="1" as="geometry">
            <mxPoint x="280" y="140" as="targetPoint"/>
          </mxGeometry>
        </mxCell>
      </root>
    </mxGraphModel>
  </diagram>
</mxfile>
